<svg id="SvgjsSvg1046" width="288" height="288" xmlns="http://www.w3.org/2000/svg" version="1.1" xmlns:xlink="http://www.w3.org/1999/xlink" xmlns:svgjs="http://svgjs.com/svgjs"><defs id="SvgjsDefs1047"></defs><g id="SvgjsG1048"><svg xmlns="http://www.w3.org/2000/svg" xmlns:svgjs="http://svgjs.com/svgjs" xmlns:xlink="http://www.w3.org/1999/xlink" viewBox="0 0 288 288" width="288" height="288"><svg xmlns="http://www.w3.org/2000/svg" data-name="Layer 2" viewBox="0 0 100 100" width="288" height="288"><path fill="#d9232d" d="M68.13824 12.93283H45.99439a1.29061 1.29061 0 100 2.58122H68.13807a1.29061 1.29061 0 10.00017-2.58122zM55.85539 18.43285H45.99422a1.29061 1.29061 0 000 2.58122h9.86117a1.29061 1.29061 0 000-2.58122z" class="color000 svgShape colorfff"></path><path fill="#d9232d" d="M88.75708,19.767a1.29062,1.29062,0,0,0,0,2.58123,2.30516,2.30516,0,0,1,2.30265,2.30265V61.3216H81.64058V22.34809h2.15091a1.29062,1.29062,0,0,0,0-2.58123H81.64058V10.98471a3.88219,3.88219,0,0,0-3.87777-3.87777h-54.02A3.88219,3.88219,0,0,0,19.865,10.98471V19.767H13.09253a4.88944,4.88944,0,0,0-4.88387,4.88388v49.854a4.88944,4.88944,0,0,0,4.88387,4.88388h7.94815a1.29062,1.29062,0,0,0,0-2.58123H13.09253a2.30517,2.30517,0,0,1-2.30265-2.30265V63.90266H91.05957V74.50493a2.30516,2.30516,0,0,1-2.30265,2.30265H27.1209a1.29062,1.29062,0,0,0,0,2.58123H40.34678v6.83895a6.40731,6.40731,0,0,0-6.28554,6.39795,1.29049,1.29049,0,0,0,1.29061,1.29061H66.49777a1.29051,1.29051,0,0,0,1.29061-1.29061,6.4072,6.4072,0,0,0-6.28554-6.39795V79.38881H88.75708A4.88944,4.88944,0,0,0,93.641,74.50493v-49.854A4.88966,4.88966,0,0,0,88.75708,19.767ZM19.865,61.3216H10.78988V24.65091a2.30517,2.30517,0,0,1,2.30265-2.30265H19.865ZM79.05936,25.962H35.09379a1.29061,1.29061,0,0,0,0,2.58122H79.05936V61.3216H22.44607V28.54326h5.93661a1.29061,1.29061,0,0,0,0-2.58122H22.44607V10.98471a1.29792,1.29792,0,0,1,1.29655-1.29655H77.76281a1.29792,1.29792,0,0,1,1.29654,1.29655V25.962ZM42.92783,79.38863H58.92161V86.2247H42.92783V79.38863Zm22.055,11.94647H36.86677a3.82621,3.82621,0,0,1,3.59547-2.52917H61.38737A3.82619,3.82619,0,0,1,64.98284,91.3351Z" class="colorfe214f svgShape colord9232d"></path><path fill="#d9232d" d="M54.45627 65.34569a3.90041 3.90041 0 103.90049 3.90049A3.90487 3.90487 0 0054.45627 65.34569zm0 5.21958a1.31918 1.31918 0 111.31926-1.3191A1.32057 1.32057 0 0154.45627 70.56527zM39.41434 19.34672l-4.2479-7.3576a1.29055 1.29055 0 00-2.23534 0l-4.24789 7.3576a1.29062 1.29062 0 001.11767 1.93592h8.496a1.29062 1.29062 0 001.1175-1.93592zm-7.37829-.64514l2.01272-3.48594 2.01272 3.48594zM78.09555 32.193h-18.691a1.29061 1.29061 0 000 2.58122h18.691a1.29061 1.29061 0 000-2.58122zM78.09555 37.869h-18.691a1.29062 1.29062 0 000 2.58123h18.691a1.29062 1.29062 0 000-2.58123zM78.09555 43.545h-18.691a1.29062 1.29062 0 000 2.58123h18.691a1.29062 1.29062 0 000-2.58123zM78.09555 49.221h-18.691a1.29061 1.29061 0 000 2.58122h18.691a1.29061 1.29061 0 000-2.58122zM68.13807 54.897h-8.7335a1.29061 1.29061 0 100 2.58122h8.7335a1.29061 1.29061 0 100-2.58122zM53.59207 31.10566H29.80071a1.2905 1.2905 0 00-1.29061 1.29061V56.18764a1.29049 1.29049 0 001.29061 1.29061H53.59207a1.29051 1.29051 0 001.29062-1.29061V32.39627A1.29052 1.29052 0 0053.59207 31.10566zM31.09149 33.68688h21.21V47.18133c-.14446-.02475-.28891-.04645-.4332-.06256a6.08946 6.08946 0 00-4.58241 1.371 4.86442 4.86442 0 01-2.58326 1.10275c-1.82605.14988-2.99679-.821-4.47984-2.04782-1.6509-1.36538-3.52341-2.91134-6.49968-2.73212a8.23775 8.23775 0 00-2.63158.61122V33.68688zM52.30163 54.897H31.09132V48.30714a6.09332 6.09332 0 012.78824-.91811c1.9605-.11953 3.22924.92981 4.69805 2.14464 1.6231 1.34249 3.46153 2.86284 6.3337 2.63157a7.32115 7.32115 0 003.84809-1.55612 3.58128 3.58128 0 012.822-.92523 5.15465 5.15465 0 01.72024.13411v5.079z" class="color000 svgShape colorfff"></path><path fill="#d9232d" d="M45.10137,36.56973A3.94864,3.94864,0,1,0,49.05,40.51837,3.953,3.953,0,0,0,45.10137,36.56973Zm0,5.31623A1.36759,1.36759,0,1,1,46.469,40.51838,1.36927,1.36927,0,0,1,45.10137,41.886Z" class="color000 svgShape colorfff"></path></svg></svg></g></svg>