<svg id="SvgjsSvg1038" width="288" height="288" xmlns="http://www.w3.org/2000/svg" version="1.1" xmlns:xlink="http://www.w3.org/1999/xlink" xmlns:svgjs="http://svgjs.com/svgjs"><defs id="SvgjsDefs1039"></defs><g id="SvgjsG1040"><svg xmlns="http://www.w3.org/2000/svg" xmlns:svgjs="http://svgjs.com/svgjs" xmlns:xlink="http://www.w3.org/1999/xlink" viewBox="0 0 288 288" width="288" height="288"><svg xmlns="http://www.w3.org/2000/svg" data-name="Layer 3" viewBox="0 0 100 100" width="288" height="288"><path fill="#d9232d" d="M83.52889,70.39438V64.7287a7.08,7.08,0,0,0-7.0715-7.0715H64.55182a39.86465,39.86465,0,0,0,3.15106-7.59055l5.37434-4.30088a5.22442,5.22442,0,0,0-3.09449-9.30468l3.15106-8.664A14.638,14.638,0,0,0,59.37831,8.15672H47.37091a47.89523,47.89523,0,0,0-25.40648,7.28647,1.4143,1.4143,0,0,0,.30266,2.54574L25.677,19.12037a3.63192,3.63192,0,0,1,2.296,4.59458q-.03345.10027-.07269.19848a6.46051,6.46051,0,0,0,.21921,5.28806l3.64607,7.28506a5.21736,5.21736,0,0,0-2.83992,9.27922L34.3,50.06665a39.86486,39.86486,0,0,0,3.14823,7.59055H25.54261a7.08,7.08,0,0,0-7.0715,7.0715v5.66568A18.41134,18.41134,0,0,0,7.15672,87.35749V94.429A1.4143,1.4143,0,0,0,8.571,95.84329H93.429a1.4143,1.4143,0,0,0,1.41429-1.4143v-7.0715A18.41134,18.41134,0,0,0,83.52889,70.39438ZM62.3144,36.44271H53.8286a1.4143,1.4143,0,0,0-1.4143,1.4143v1.4143H49.5857V37.857a1.4143,1.4143,0,0,0-1.4143-1.4143H35.44271v-2.072l8.82805-5.8849a11.53368,11.53368,0,0,1,6.4181-1.94325,14.4428,14.4428,0,0,0,8.99352-3.1553l2.311-1.84849,2.42552,3.6404a12.68485,12.68485,0,0,1,2.13842,7.06019v4.2033Zm-1.4143,2.8286V43.5142a1.4143,1.4143,0,0,1-1.4143,1.4143H56.6572a1.4143,1.4143,0,0,1-1.4143-1.4143V39.27131Zm-14.143,0V43.5142a1.4143,1.4143,0,0,1-1.4143,1.4143H42.5142a1.4143,1.4143,0,0,1-1.4143-1.4143V39.27131Zm25.45739,2.40431a2.3958,2.3958,0,0,1-.90232,1.87818L68.748,45.60454a39.799,39.799,0,0,0,.61523-6.33323h.44691a2.4043,2.4043,0,0,1,2.40431,2.4043ZM30.52519,24.96425a6.46052,6.46052,0,0,0-3.6-8.39743q-.17459-.06983-.353-.12938l-.43278-.14143a45.064,45.064,0,0,1,21.23147-5.3107h12.0074a11.8094,11.8094,0,0,1,11.098,15.84016l-1.229,3.38018a15.50917,15.50917,0,0,0-2.475-6.602l-3.28118-4.92317a1.41587,1.41587,0,0,0-2.06063-.31963l-3.51454,2.8187A11.6185,11.6185,0,0,1,50.68886,23.714a14.35806,14.35806,0,0,0-7.988,2.41845l-9.45742,6.305a1.403,1.403,0,0,0-.24043.20649l-2.3534-4.70821A3.63054,3.63054,0,0,1,30.52519,24.96425Zm.16405,18.59238a2.4043,2.4043,0,0,1,1.50058-4.28532h.44409a39.798,39.798,0,0,0,.61522,6.33606Zm4.7761-4.28532h2.806V43.5142a4.2429,4.2429,0,0,0,4.2429,4.2429h2.8286a4.2429,4.2429,0,0,0,4.2429-4.2429V42.0999h2.8286v1.4143a4.2429,4.2429,0,0,0,4.2429,4.2429h2.8286a4.24291,4.24291,0,0,0,4.2429-4.2429V39.27131h2.806A37.03065,37.03065,0,0,1,61.2862,57.6572H40.7138A37.03053,37.03053,0,0,1,35.46534,39.27131ZM25.54261,60.4858H76.45739a4.2429,4.2429,0,0,1,4.2429,4.2429v28.286H21.29971V64.7287A4.2429,4.2429,0,0,1,25.54261,60.4858ZM9.98531,87.35749a15.57994,15.57994,0,0,1,8.4858-13.85024V93.01469H9.98531Zm82.02938,5.6572h-8.4858V73.50725a15.58137,15.58137,0,0,1,8.4858,13.85024Z" class="colorfe214f svgShape colord9232d"></path><path fill="#d9232d" d="M51 88.77179a5.6572 5.6572 0 10-5.6572-5.6572A5.65719 5.65719 0 0051 88.77179zm0-8.4858a2.8286 2.8286 0 11-2.8286 2.8286A2.8286 2.8286 0 0151 80.286zM41.51429 75.6287l1.99982-1.99982-4.65729-4.65729 4.65729-4.65728-1.99982-1.99982-5.6572 5.65719a1.41432 1.41432 0 000 1.99983zM60.48571 75.6287l5.6572-5.65719a1.41431 1.41431 0 000-1.99983l-5.6572-5.65719-1.99982 1.99982 4.65728 4.65728-4.65728 4.65729z" class="color231f20 svgShape colorfff"></path><rect width="14.143" height="2.829" x="43.928" y="67.557" fill="#d9232d" class="color231f20 svgShape colorfff" transform="rotate(-53.119 51 68.97)"></rect></svg></svg></g></svg>