<svg id="SvgjsSvg1027" width="288" height="288" xmlns="http://www.w3.org/2000/svg" version="1.1" xmlns:xlink="http://www.w3.org/1999/xlink" xmlns:svgjs="http://svgjs.com/svgjs"><defs id="SvgjsDefs1028"></defs><g id="SvgjsG1029"><svg xmlns="http://www.w3.org/2000/svg" xmlns:svgjs="http://svgjs.com/svgjs" xmlns:xlink="http://www.w3.org/1999/xlink" viewBox="0 0 288 288" width="288" height="288"><svg xmlns="http://www.w3.org/2000/svg" xmlns:svgjs="http://svgjs.com/svgjs" xmlns:xlink="http://www.w3.org/1999/xlink" viewBox="0 0 288 288" width="288" height="288"><svg xmlns="http://www.w3.org/2000/svg" data-name="Layer 1" viewBox="0 0 100 100" width="288" height="288"><path fill="#000248" d="M95.68977,69.06764A6.025,6.025,0,0,0,87.48,66.85731L72.81972,75.32269a5.98746,5.98746,0,0,0-3.39818-2.4509l-22.434-5.99944a10.46073,10.46073,0,0,0-5.2777-.04511l-7.894,1.96974V66.21076a1.50362,1.50362,0,0,0-1.50362-1.50362H20.28325a1.50362,1.50362,0,0,0-1.50362,1.50362v1.50362H8.25429A1.50362,1.50362,0,0,0,6.75067,69.218V90.26867a1.50363,1.50363,0,0,0,1.50362,1.50362H18.77963v1.50362a1.50362,1.50362,0,0,0,1.50362,1.50362H32.3122a1.50362,1.50362,0,0,0,1.50362-1.50362v-2.075l1.93967.96232a10.62025,10.62025,0,0,0,4.70634,1.11268H62.971a10.42,10.42,0,0,0,5.26266-1.4134L93.49448,77.2774A6.028,6.028,0,0,0,95.68977,69.06764ZM18.77963,88.76505H9.75791V70.72162h9.02172Zm12.02895,3.00724H21.78687V67.71438h9.02171ZM91.99086,74.67614,66.73005,89.26125a7.491,7.491,0,0,1-3.759,1.00742H40.46182a7.45189,7.45189,0,0,1-3.36811-.79692l-3.27789-1.63894V71.89444l8.61574-2.15018a7.46393,7.46393,0,0,1,3.77409.03007l22.434,6.01448a2.99371,2.99371,0,0,1,.72174,5.50325,2.93207,2.93207,0,0,1-2.27046.30072L49.15274,76.7812a1.51,1.51,0,1,0-.78188,2.917L66.309,84.49476a6.12247,6.12247,0,0,0,1.56377.21051,5.88817,5.88817,0,0,0,2.9922-.812,5.97685,5.97685,0,0,0,2.81177-3.65379,6.19215,6.19215,0,0,0,.1654-2.02989l15.14145-8.736a3.04483,3.04483,0,0,1,4.08984,1.09764A3.00725,3.00725,0,0,1,91.99086,74.67614Z" class="colorfe214f svgShape colord9232d colorfff"></path><path fill="#000248" d="M26.29773,90.26867a1.50363,1.50363,0,0,0,1.50362-1.50362V87.26143a1.50362,1.50362,0,1,0-3.00724,0v1.50362A1.50362,1.50362,0,0,0,26.29773,90.26867Z" class="colorfe214f svgShape colord9232d colorfff"></path><path fill="#000248" d="M72.90993,27.11665H67.27136l-.27065-.63152,3.99962-3.98459a1.51565,1.51565,0,0,0,0-2.13514L64.625,13.99005a1.51566,1.51566,0,0,0-2.13514,0l-3.98459,3.99963-.63152-.27065V12.08045a1.50363,1.50363,0,0,0-1.50362-1.50362H47.3484a1.50362,1.50362,0,0,0-1.50362,1.50362V17.719l-.63152.27065-3.98459-3.99963a1.51565,1.51565,0,0,0-2.13514,0L32.71818,20.3654a1.51565,1.51565,0,0,0,0,2.13514l3.99963,3.98459-.27065.63152H30.80858A1.50361,1.50361,0,0,0,29.305,28.62027V37.642a1.50362,1.50362,0,0,0,1.50361,1.50362h5.63858l.27065.63152-3.99963,3.98459a1.55323,1.55323,0,0,0-.436,1.06757,1.5818,1.5818,0,0,0,.436,1.06756l6.37535,6.37535a1.55323,1.55323,0,0,0,1.06757.43605,1.58187,1.58187,0,0,0,1.06757-.43605l3.98459-3.99963.63152.27065V54.1818a1.50362,1.50362,0,0,0,1.50362,1.50362h9.02172a1.50362,1.50362,0,0,0,1.50362-1.50362V48.54323l.63151-.27065,3.9846,3.99962a1.57427,1.57427,0,0,0,2.13513,0l6.37535-6.37534a1.58183,1.58183,0,0,0,.436-1.06757,1.55323,1.55323,0,0,0-.436-1.06757L67.0007,39.77713l.27065-.63152h5.63858A1.50362,1.50362,0,0,0,74.41355,37.642V28.62027A1.50362,1.50362,0,0,0,72.90993,27.11665Zm-1.50362,9.02172H66.20379a1.50362,1.50362,0,0,0-1.42844,1.03749,11.887,11.887,0,0,1-.91721,2.18025,1.52768,1.52768,0,0,0,.25561,1.78931l3.69891,3.68387-4.25524,4.25524-3.68387-3.6989A1.5277,1.5277,0,0,0,58.08424,45.13a11.887,11.887,0,0,1-2.18025.91721,1.50361,1.50361,0,0,0-1.03749,1.42844v5.20252H48.852V47.47566a1.50361,1.50361,0,0,0-1.0375-1.42844A11.888,11.888,0,0,1,45.63427,45.13a1.52768,1.52768,0,0,0-1.78931.25562l-3.68387,3.6989-4.25524-4.25524,3.69891-3.68387a1.52768,1.52768,0,0,0,.25561-1.78931,11.88774,11.88774,0,0,1-.91721-2.18025,1.50363,1.50363,0,0,0-1.42844-1.0375H32.3122V30.12389h5.20253a1.50362,1.50362,0,0,0,1.42844-1.0375,11.88733,11.88733,0,0,1,.91721-2.18025,1.52768,1.52768,0,0,0-.25562-1.78931L35.90585,21.433l4.25525-4.25524L43.845,20.87663a1.52766,1.52766,0,0,0,1.7893.25561,11.88832,11.88832,0,0,1,2.18025-.91721A1.50361,1.50361,0,0,0,48.852,18.7866V13.58407H54.8665V18.7866A1.50364,1.50364,0,0,0,55.904,20.215a11.887,11.887,0,0,1,2.18025.9172,1.52768,1.52768,0,0,0,1.78931-.25561l3.68387-3.69891L67.81266,21.433l-3.6989,3.68386a1.52768,1.52768,0,0,0-.25561,1.78931,11.888,11.888,0,0,1,.91721,2.18025,1.50361,1.50361,0,0,0,1.42844,1.0375h5.20251Z" class="color231f20 svgShape colord9232d colorfff"></path><path fill="#000248" d="M60.881,33.13113a9.02172,9.02172,0,1,0-9.02172,9.02171A9.02172,9.02172,0,0,0,60.881,33.13113Zm-15.0362,0a6.01448,6.01448,0,1,1,6.01448,6.01448A6.01447,6.01447,0,0,1,45.84478,33.13113Z" class="color231f20 svgShape colord9232d colorfff"></path><path fill="#000248" d="M86.44251,36.13837H83.43527a31.576,31.576,0,0,0-63.152,0H17.276a9.02172,9.02172,0,1,0,0,18.04343h7.5181a1.50362,1.50362,0,0,0,1.50362-1.50362V37.642a1.50362,1.50362,0,0,0-1.50362-1.50362H23.29049a28.56877,28.56877,0,0,1,57.13754,0H78.92441A1.50362,1.50362,0,0,0,77.42079,37.642V52.67818a1.50362,1.50362,0,0,0,1.50362,1.50362H80.428v4.51086a1.50363,1.50363,0,0,1-1.50362,1.50362h-10.796A4.52589,4.52589,0,0,0,63.88821,57.189H60.881a4.51086,4.51086,0,0,0,0,9.02172h3.00723a4.5259,4.5259,0,0,0,4.24021-3.00724h10.796a4.5244,4.5244,0,0,0,4.51086-4.51086V54.1818h3.00724a9.02172,9.02172,0,0,0,0-18.04343ZM17.276,51.17456a6.01448,6.01448,0,1,1,0-12.029Zm6.01448,0H20.28325v-12.029h3.00724Zm40.59772,12.029H60.881a1.50362,1.50362,0,0,1,0-3.00724h3.00723a1.50362,1.50362,0,0,1,0,3.00724Zm19.54706-12.029H80.428v-12.029h3.00724Zm3.00724,0v-12.029a6.01448,6.01448,0,1,1,0,12.029Z" class="colorfe214f svgShape colord9232d colorfff"></path></svg></svg></svg></g></svg>