  <svg xmlns="http://www.w3.org/2000/svg" xmlns:xlink="http://www.w3.org/1999/xlink" preserveAspectRatio="xMidYMid" width="43" height="43" viewBox="0 0 45 45">
                    <path fill="#5c8eb0" d="M8.812,16.004 C7.526,16.003 6.483,17.061 6.483,18.364 L6.485,28.243 C6.485,29.550 7.528,30.604 8.815,30.604 C10.102,30.604 11.145,29.549 11.144,28.243 L11.144,18.362 C11.143,17.061 10.099,16.003 8.812,16.004 M27.599,7.131 L29.225,4.125 C29.312,3.967 29.255,3.767 29.098,3.678 C28.939,3.593 28.743,3.651 28.659,3.809 L27.017,6.848 C25.635,6.225 24.088,5.876 22.452,5.877 C20.820,5.876 19.274,6.224 17.898,6.843 L16.253,3.812 C16.168,3.653 15.971,3.595 15.816,3.682 C15.658,3.768 15.600,3.968 15.688,4.125 L17.314,7.130 C14.118,8.799 11.959,11.979 11.961,15.629 L32.945,15.626 C32.946,11.977 30.790,8.804 27.599,7.131 M17.679,11.779 C17.196,11.778 16.802,11.380 16.802,10.888 C16.802,10.398 17.195,9.996 17.680,9.996 C18.167,9.996 18.560,10.398 18.561,10.888 C18.561,11.379 18.166,11.778 17.679,11.779 M27.234,11.777 C26.749,11.778 26.354,11.379 26.354,10.886 C26.356,10.398 26.748,9.995 27.234,9.993 C27.717,9.995 28.113,10.398 28.112,10.886 C28.113,11.378 27.719,11.777 27.234,11.777 M12.046,16.450 L12.050,31.761 C12.049,33.154 13.161,34.278 14.536,34.278 L16.228,34.279 L16.230,39.507 C16.230,40.809 17.275,41.867 18.558,41.867 C19.845,41.867 20.888,40.808 20.889,39.505 L20.887,34.279 L24.032,34.278 L24.033,39.505 C24.033,40.806 25.079,41.867 26.362,41.864 C27.650,41.865 28.693,40.806 28.693,39.504 L28.691,34.278 L30.390,34.276 C31.761,34.277 32.876,33.151 32.877,31.758 L32.874,16.446 L12.046,16.450 L12.046,16.450 ZM38.431,18.360 C38.431,17.056 37.388,16.000 36.101,16.001 C34.815,15.999 33.773,17.058 33.773,18.361 L33.775,28.241 C33.775,29.546 34.817,30.600 36.104,30.601 C37.391,30.600 38.433,29.546 38.433,28.240 L38.431,18.360 L38.431,18.360 Z"></path>
                    </svg>