<svg xmlns="http://www.w3.org/2000/svg" xmlns:xlink="http://www.w3.org/1999/xlink" preserveAspectRatio="xMidYMid" width="43" height="43" viewBox="0 0 45 45">
                    <path fill="#5c8eb0" d="M19.463,22.274 L25.719,22.274 L22.393,15.539 L19.463,22.274 ZM22.404,5.884 L6.481,11.311 L8.997,31.518 L22.421,38.664 L35.914,31.421 L38.430,11.215 L22.404,5.884 L22.404,5.884 ZM18.168,25.137 L16.216,29.867 L12.566,29.882 L22.403,8.780 L22.385,8.739 L22.367,8.739 L22.368,8.705 L22.385,8.739 L22.422,8.739 L22.456,8.669 L22.456,8.739 L22.422,8.739 L22.404,8.780 L32.665,29.970 L29.152,29.895 L26.991,25.059 L22.377,25.080 " class="cls-1"></path>
                    </svg>