 <svg xmlns="http://www.w3.org/2000/svg" xmlns:xlink="http://www.w3.org/1999/xlink" preserveAspectRatio="xMidYMid" width="43" height="43" viewBox="0 0 45 45">
                    <path fill="#5c8eb0" d="M35.123,23.199 C35.094,23.170 35.064,23.141 35.004,23.141 L34.975,23.112 C34.945,23.083 34.915,23.083 34.915,23.054 L34.885,23.025 C34.856,23.025 34.826,22.996 34.826,22.996 L34.766,22.966 C34.736,22.966 34.707,22.937 34.707,22.937 L34.647,22.908 C34.617,22.908 34.588,22.880 34.588,22.880 C34.558,22.880 34.558,22.880 34.528,22.850 L34.439,22.821 C34.409,22.821 34.409,22.821 34.379,22.792 L34.290,22.763 L34.260,22.763 L34.141,22.734 L34.082,22.734 C34.052,22.734 34.022,22.734 33.992,22.705 L33.308,22.705 C33.129,18.836 33.486,14.909 32.474,11.187 C36.314,9.849 33.308,4.701 29.974,6.998 C27.771,5.137 24.735,4.730 21.550,4.730 C18.425,4.933 15.478,5.573 13.394,7.173 C12.561,6.766 11.757,6.650 11.043,6.853 L11.043,6.882 C11.013,6.882 10.953,6.911 10.924,6.940 C10.894,6.940 10.834,6.969 10.805,6.998 L10.775,6.998 C10.745,6.998 10.715,7.027 10.656,7.057 L10.626,7.057 L10.537,7.115 L10.507,7.115 L10.418,7.173 L10.388,7.173 L10.299,7.231 C10.299,7.231 10.269,7.231 10.269,7.260 L10.180,7.318 C10.180,7.318 10.150,7.318 10.150,7.347 L10.060,7.405 C10.060,7.405 10.031,7.405 10.031,7.435 L9.941,7.493 L9.912,7.522 C9.882,7.551 9.852,7.551 9.852,7.581 L9.822,7.609 L9.763,7.668 L9.733,7.697 C9.703,7.726 9.703,7.755 9.674,7.755 L9.644,7.784 C9.614,7.813 9.614,7.842 9.584,7.842 L9.554,7.871 C9.525,7.900 9.525,7.929 9.495,7.929 L9.465,7.958 C9.435,7.988 9.435,8.016 9.406,8.016 L9.376,8.046 C9.346,8.075 9.346,8.104 9.316,8.104 L9.287,8.133 L9.257,8.220 C9.257,8.220 9.257,8.249 9.227,8.249 L9.197,8.337 C9.197,8.337 9.197,8.366 9.167,8.366 L9.138,8.453 C9.138,8.453 9.138,8.482 9.108,8.482 L9.078,8.569 C9.078,8.569 9.078,8.598 9.048,8.598 C9.167,8.685 9.167,8.714 9.167,8.714 L9.167,8.743 L9.138,8.831 L9.138,8.860 C9.138,8.889 9.138,8.918 9.108,8.947 L9.108,9.849 C9.108,9.878 9.108,9.907 9.138,9.936 L9.138,9.965 L9.167,10.053 L9.167,10.082 L9.197,10.169 C9.197,10.169 9.197,10.198 9.227,10.198 L9.257,10.285 C9.257,10.285 9.257,10.314 9.287,10.314 L9.316,10.401 C9.316,10.401 9.316,10.430 9.346,10.430 L9.406,10.518 C9.406,10.518 9.406,10.547 9.435,10.547 L9.495,10.634 C9.495,10.634 9.495,10.663 9.525,10.663 L9.584,10.751 L9.614,10.780 L9.703,10.867 L9.793,10.954 L9.822,10.954 C10.120,11.216 10.418,11.419 11.013,11.594 L11.013,11.536 C9.763,15.201 10.805,18.894 10.864,22.676 C10.686,22.676 10.656,22.792 10.358,22.821 L10.209,22.821 C10.180,22.821 10.120,22.821 10.060,22.850 C10.031,22.850 9.971,22.850 9.941,22.880 L9.822,22.908 L9.793,22.908 L9.674,22.937 L9.644,22.937 L9.554,22.966 L9.525,22.966 L9.435,22.996 C9.435,22.996 9.406,22.996 9.406,23.025 L9.316,23.054 L9.257,23.083 C9.227,23.083 9.197,23.112 9.197,23.112 L9.138,23.141 L9.078,23.170 C9.048,23.170 9.019,23.199 9.019,23.199 L8.959,23.228 L8.840,23.315 C8.810,23.345 8.781,23.374 8.751,23.374 L8.632,23.490 L8.602,23.519 C8.572,23.577 8.513,23.635 8.483,23.665 L8.423,23.752 L8.334,23.926 L8.304,24.014 L8.304,24.101 C8.304,24.247 8.364,24.363 8.572,24.450 C8.632,25.526 9.733,25.032 10.239,24.683 L10.269,24.653 C10.328,24.595 10.418,24.566 10.447,24.566 L10.477,24.566 L10.537,24.537 C10.567,24.537 10.567,24.537 10.596,24.508 C10.656,24.479 10.715,24.479 10.745,24.450 C10.775,24.450 10.775,24.421 10.775,24.392 L10.805,24.363 C10.834,24.305 10.864,24.188 10.864,24.014 L10.894,23.635 L10.894,24.159 C10.745,27.969 9.703,33.088 11.876,36.520 C12.263,37.131 12.739,37.655 13.275,38.091 L13.126,38.091 C13.067,38.149 12.978,38.207 12.888,38.265 L12.620,38.440 L12.531,38.498 L12.352,38.614 L12.084,38.818 L11.757,39.109 C11.698,39.167 11.668,39.225 11.638,39.254 L11.519,39.429 L11.459,39.516 C11.430,39.574 11.400,39.632 11.400,39.691 L11.370,39.778 C11.311,40.011 11.370,40.272 11.549,40.563 L11.668,40.680 L11.727,40.680 C11.757,40.680 11.787,40.680 11.846,40.709 C11.906,40.825 12.204,41.435 13.007,40.970 C13.841,40.534 14.406,39.632 15.418,39.487 L15.270,39.312 C17.026,40.127 19.080,40.476 20.925,40.534 C23.515,40.621 26.462,40.272 28.813,39.022 C29.468,39.225 29.974,40.156 30.539,40.592 L30.569,40.621 L30.599,40.650 L30.629,40.680 L30.659,40.709 C30.659,40.709 30.688,40.709 30.688,40.738 C30.688,40.738 30.718,40.738 30.718,40.767 C30.718,40.767 30.748,40.767 30.748,40.796 L31.373,40.796 C31.373,40.796 31.403,40.796 31.403,40.767 L31.432,40.767 C31.432,40.767 31.462,40.767 31.462,40.738 L31.492,40.738 C31.492,40.738 31.522,40.738 31.522,40.709 C31.522,40.709 31.552,40.709 31.552,40.680 L31.581,40.650 C31.581,40.650 31.611,40.650 31.611,40.621 L31.641,40.592 L31.671,40.592 L31.730,40.534 L31.790,40.505 L31.819,40.505 L31.849,40.476 L31.879,40.476 L31.909,40.447 L31.938,40.418 L31.968,40.388 L31.998,40.360 L32.028,40.330 L32.058,40.301 L32.087,40.272 L32.087,40.243 C32.087,40.243 32.087,40.214 32.117,40.214 L32.117,40.185 C32.117,40.185 32.117,40.156 32.147,40.156 L32.147,40.127 C32.147,40.127 32.147,40.098 32.177,40.098 L32.177,39.691 C32.177,39.691 32.087,39.691 32.087,39.661 L31.998,39.632 L31.998,39.603 L32.087,39.574 C32.087,39.574 32.147,39.574 32.147,39.545 L32.177,39.516 L32.177,38.905 C32.177,38.905 32.177,38.876 32.147,38.876 L32.147,38.847 C32.147,38.847 32.147,38.818 32.117,38.818 L32.117,38.789 C32.117,38.789 32.117,38.760 32.087,38.760 C32.087,38.760 32.087,38.731 32.058,38.731 C32.058,38.731 32.058,38.702 32.028,38.702 C32.028,38.702 32.028,38.673 31.998,38.673 C31.998,38.673 31.998,38.644 31.968,38.644 C31.968,38.644 31.968,38.614 31.938,38.614 C31.938,38.614 31.938,38.585 31.909,38.585 C31.909,38.585 31.909,38.556 31.879,38.556 C31.879,38.556 31.879,38.527 31.849,38.527 C31.849,38.527 31.849,38.498 31.819,38.498 C31.819,38.498 31.819,38.469 31.790,38.469 C31.790,38.469 31.790,38.440 31.760,38.440 C31.760,38.440 31.760,38.411 31.730,38.411 C31.730,38.411 31.730,38.382 31.700,38.382 L31.671,38.353 L31.641,38.323 L31.611,38.294 L31.581,38.265 L31.552,38.236 L31.522,38.207 L31.492,38.178 L31.462,38.149 L31.432,38.120 L31.403,38.091 L31.373,38.062 L31.343,38.033 L31.343,38.004 L31.313,37.975 L31.284,37.946 L31.254,37.916 L31.224,37.888 L31.194,37.858 L31.165,37.829 L31.135,37.801 L31.105,37.771 L31.075,37.742 L31.045,37.713 L31.016,37.684 L30.986,37.655 L30.956,37.625 L30.926,37.596 L30.897,37.568 L30.867,37.538 L30.837,37.509 L30.807,37.480 L30.778,37.451 C31.373,36.898 31.909,36.230 32.296,35.444 C34.052,32.012 33.754,27.824 33.516,24.043 L33.546,24.043 C33.576,24.043 33.605,24.072 33.605,24.072 L33.695,24.072 C33.695,24.072 33.725,24.072 33.725,24.101 L33.754,24.101 C33.754,24.101 33.784,24.101 33.784,24.130 L33.844,24.159 C34.350,24.508 35.451,25.003 35.510,23.926 C35.987,24.101 35.421,23.403 35.123,23.199 L35.123,23.199 ZM13.632,11.041 C12.680,6.388 20.300,5.516 20.568,10.053 C20.806,13.834 14.615,14.793 13.632,11.041 ZM24.378,15.404 C23.991,15.812 23.574,15.753 23.157,15.608 C23.157,16.160 23.277,16.742 23.187,17.324 C23.039,17.585 22.741,17.614 22.503,17.731 C22.146,17.673 21.878,17.469 21.729,17.149 L21.669,17.120 C20.508,18.632 19.794,16.801 20.121,15.666 C19.764,15.695 19.466,15.608 19.228,15.230 C18.812,14.473 19.437,13.543 20.240,13.397 C20.449,14.270 22.830,14.153 23.247,13.339 C24.170,13.775 25.182,14.590 24.378,15.404 L24.378,15.404 ZM22.294,10.314 C22.026,6.301 28.337,5.224 29.260,9.151 C30.301,13.514 23.068,14.648 22.294,10.314 ZM15.329,9.296 C14.764,9.296 14.287,9.791 14.287,10.401 C14.287,11.013 14.764,11.507 15.329,11.507 C15.895,11.507 16.371,11.013 16.371,10.401 C16.371,9.791 15.924,9.296 15.329,9.296 ZM15.805,10.954 C15.656,10.954 15.567,10.838 15.567,10.663 C15.567,10.518 15.686,10.372 15.805,10.372 C15.954,10.372 16.043,10.489 16.043,10.663 C16.043,10.809 15.954,10.954 15.805,10.954 ZM24.080,9.035 C23.515,9.035 23.068,9.529 23.068,10.140 C23.068,10.751 23.515,11.245 24.080,11.245 C24.646,11.245 25.092,10.751 25.092,10.140 C25.092,9.529 24.646,9.035 24.080,9.035 ZM24.556,10.663 C24.437,10.663 24.318,10.547 24.318,10.372 C24.318,10.227 24.437,10.082 24.556,10.082 C24.676,10.082 24.795,10.198 24.795,10.372 C24.795,10.547 24.676,10.663 24.556,10.663 Z" class="cls-1"></path>
                    </svg>