<svg xmlns="http://www.w3.org/2000/svg" xmlns:xlink="http://www.w3.org/1999/xlink" preserveAspectRatio="xMidYMid" width="43" height="43" viewBox="0 0 45 45">
                    <path fill="#5c8eb0" d="M33.161,23.867 C33.216,29.790 38.372,31.762 38.429,31.787 C38.386,31.925 37.606,34.596 35.713,37.354 C34.077,39.738 32.379,42.113 29.704,42.163 C27.076,42.211 26.231,40.608 23.226,40.608 C20.222,40.608 19.284,42.113 16.796,42.211 C14.214,42.309 12.248,39.632 10.598,37.257 C7.227,32.398 4.652,23.526 8.110,17.536 C9.828,14.562 12.899,12.679 16.232,12.631 C18.767,12.582 21.160,14.331 22.710,14.331 C24.259,14.331 27.167,12.228 30.224,12.537 C31.504,12.590 35.096,13.052 37.403,16.419 C37.217,16.535 33.117,18.915 33.161,23.867 M28.222,9.322 C29.593,7.668 30.515,5.364 30.264,3.073 C28.288,3.152 25.899,4.385 24.482,6.040 C23.212,7.503 22.099,9.848 22.399,12.094 C24.602,12.264 26.851,10.978 28.222,9.322 " class="cls-1"></path>
                    </svg>