 <svg xmlns="http://www.w3.org/2000/svg" xmlns:xlink="http://www.w3.org/1999/xlink" preserveAspectRatio="xMidYMid" width="43" height="43" viewBox="0 0 45 45">
                    <path fill="#5c8eb0" d="M31.528,32.626 C31.528,32.625 31.652,32.514 31.690,32.415 C39.824,28.244 36.063,24.236 33.438,24.775 C32.796,24.908 32.508,25.022 32.508,25.022 C32.508,25.022 32.747,24.653 33.203,24.493 C38.396,22.692 42.389,29.808 31.528,32.626 ZM26.787,19.945 C29.225,23.334 23.916,26.039 23.916,26.039 C23.916,26.039 26.557,23.902 24.464,21.524 C17.377,13.463 32.217,9.806 32.217,9.806 C22.763,15.218 24.509,16.786 26.787,19.945 ZM22.515,12.351 C15.476,17.838 20.910,20.965 22.512,24.540 C18.403,20.882 15.390,17.661 17.411,14.663 C20.380,10.263 28.604,8.130 26.787,1.066 C26.787,1.066 31.291,5.514 22.515,12.351 ZM17.557,24.618 C17.557,24.618 9.678,26.465 14.767,27.136 C16.916,27.420 21.198,27.355 25.189,27.024 C28.451,26.754 31.723,26.177 31.723,26.177 C31.723,26.177 30.574,26.663 29.742,27.223 C21.740,29.301 6.285,28.332 10.735,26.209 C14.496,24.413 17.557,24.618 17.557,24.618 ZM17.939,35.427 C21.375,35.815 23.130,35.759 26.915,35.053 C26.915,35.053 27.912,35.668 29.302,36.202 C20.815,39.791 10.094,35.994 16.760,34.156 C16.760,34.156 15.104,35.106 17.939,35.427 ZM16.702,31.118 C20.372,31.492 23.270,31.523 28.286,30.570 C28.286,30.570 28.978,31.264 30.068,31.644 C19.809,34.605 8.381,31.876 15.722,29.472 C15.722,29.472 13.865,30.828 16.702,31.118 ZM13.409,37.502 C13.409,37.502 12.866,37.465 11.915,37.668 C11.003,37.862 8.103,38.783 9.649,39.448 C13.951,41.295 29.441,40.853 34.339,39.389 C36.915,38.618 35.689,37.621 35.689,37.621 C40.176,39.619 25.939,43.635 8.637,40.866 C2.292,39.850 11.689,36.307 13.409,37.502 ZM31.984,42.278 C37.890,41.182 38.435,39.799 38.435,39.799 C38.152,43.445 26.162,44.212 18.356,43.719 C13.226,43.394 12.228,42.578 12.228,42.578 C17.101,43.372 25.321,43.516 31.984,42.278 Z" class="cls-1"></path>
                    </svg>