 <svg xmlns="http://www.w3.org/2000/svg" xmlns:xlink="http://www.w3.org/1999/xlink" preserveAspectRatio="xMidYMid" width="43" height="43" viewBox="0 0 45 45">
                    <path fill="#5c8eb0" d="M38.674,23.794 L37.936,23.356 C37.908,23.339 37.890,23.309 37.890,23.276 L37.890,22.399 C37.890,22.366 37.908,22.335 37.936,22.319 L38.674,21.872 C38.688,21.865 38.704,21.865 38.720,21.865 C38.735,21.865 38.745,21.864 38.758,21.872 L39.496,22.319 C39.523,22.336 39.542,22.366 39.542,22.399 L39.542,23.276 C39.542,23.309 39.523,23.339 39.496,23.356 L38.758,23.794 C38.731,23.811 38.701,23.811 38.674,23.794 ZM42.769,22.088 L40.472,23.475 C40.400,23.518 40.313,23.518 40.241,23.475 C40.170,23.432 40.126,23.354 40.126,23.268 L40.126,22.136 C40.126,22.050 40.082,21.971 40.011,21.928 L38.812,21.211 C38.740,21.168 38.653,21.168 38.581,21.211 L37.383,21.928 C37.311,21.971 37.260,22.050 37.260,22.136 L37.260,23.571 C37.260,23.657 37.311,23.744 37.383,23.786 L41.240,26.083 C41.312,26.126 41.356,26.204 41.355,26.290 C41.355,26.377 41.306,26.455 41.232,26.498 L38.927,27.829 C38.786,27.911 38.614,27.905 38.474,27.821 L34.670,25.573 C34.526,25.487 34.432,25.331 34.432,25.158 L34.432,20.565 C34.432,20.393 34.520,20.236 34.663,20.150 L38.497,17.853 C38.569,17.811 38.647,17.789 38.728,17.790 L38.728,17.789 C38.808,17.790 38.886,17.810 38.958,17.853 L42.769,20.150 C42.912,20.236 43.000,20.393 43.000,20.565 L43.000,21.673 C43.000,21.844 42.912,22.002 42.769,22.088 ZM27.509,27.933 C27.365,28.019 27.191,28.019 27.048,27.933 L23.213,25.636 C23.070,25.550 22.983,25.393 22.983,25.222 L22.983,20.628 C22.983,20.457 23.070,20.292 23.213,20.206 L27.048,17.909 C27.191,17.824 27.366,17.824 27.509,17.909 L28.469,18.483 C28.520,18.513 28.581,18.513 28.631,18.483 C28.681,18.453 28.708,18.400 28.708,18.340 L28.708,12.239 C28.708,12.154 28.752,12.075 28.823,12.032 C28.858,12.010 28.898,12.001 28.938,12.000 C28.978,12.000 29.018,12.003 29.053,12.024 L31.336,13.348 C31.482,13.433 31.574,13.596 31.574,13.770 L31.574,25.222 C31.574,25.393 31.486,25.550 31.343,25.636 L27.509,27.933 ZM28.700,22.128 C28.700,22.085 28.674,22.045 28.638,22.024 L27.324,21.234 C27.307,21.224 27.283,21.219 27.263,21.219 L27.263,21.219 C27.243,21.219 27.227,21.224 27.209,21.235 L25.895,22.024 C25.860,22.045 25.834,22.085 25.834,22.128 L25.834,23.706 C25.834,23.749 25.859,23.789 25.895,23.810 L27.209,24.600 C27.245,24.621 27.289,24.621 27.324,24.600 L28.638,23.810 C28.674,23.789 28.700,23.749 28.700,23.706 L28.700,22.128 ZM16.021,27.845 C15.878,27.931 15.703,27.931 15.560,27.845 L11.726,25.549 C11.583,25.463 11.495,25.306 11.495,25.134 L11.495,20.541 C11.495,20.369 11.582,20.204 11.726,20.118 L15.560,17.829 C15.632,17.787 15.711,17.766 15.791,17.766 C15.871,17.766 15.950,17.787 16.021,17.829 L19.856,20.118 C19.999,20.204 20.086,20.369 20.086,20.541 L20.086,25.134 C20.086,25.306 19.999,25.463 19.856,25.549 L16.021,27.845 ZM8.468,26.872 C8.397,26.917 8.309,26.917 8.237,26.872 L5.963,25.517 C5.820,25.429 5.725,25.273 5.725,25.102 L5.725,22.223 C5.725,22.052 5.638,21.894 5.494,21.809 L4.526,21.227 C4.456,21.183 4.374,21.163 4.295,21.163 C4.215,21.163 4.137,21.183 4.065,21.227 L3.097,21.809 C2.953,21.894 2.866,22.052 2.866,22.223 L2.866,25.102 C2.866,25.273 2.772,25.428 2.628,25.517 L0.354,26.872 C0.283,26.917 0.194,26.917 0.123,26.872 C0.050,26.830 0.008,26.751 0.008,26.665 L0.000,20.501 C0.000,20.328 0.088,20.172 0.230,20.086 L4.065,17.790 C4.131,17.750 4.199,17.737 4.272,17.734 L4.318,17.734 C4.392,17.737 4.461,17.750 4.526,17.790 L8.360,20.086 C8.504,20.172 8.591,20.328 8.591,20.501 L8.583,26.665 C8.583,26.751 8.538,26.830 8.468,26.872 Z" class="cls-1"></path>
                    </svg>