<svg xmlns="http://www.w3.org/2000/svg" xmlns:xlink="http://www.w3.org/1999/xlink" preserveAspectRatio="xMidYMid" width="43" height="43" viewBox="0 0 45 45">
                    <path fill="#5c8eb0" d="M23.001,11.720 C11.405,11.720 2.004,16.407 2.004,22.187 C2.004,27.968 11.405,32.654 23.001,32.654 C34.597,32.654 43.998,27.968 43.998,22.187 C43.998,16.407 34.597,11.720 23.001,11.720 ZM17.538,24.227 C17.036,24.688 16.480,24.878 15.867,25.074 C15.254,25.271 14.475,25.230 13.526,25.230 L11.377,25.230 L10.782,28.611 L8.273,28.611 L10.512,17.116 L15.337,17.116 C16.789,17.116 17.847,17.527 18.513,18.276 C19.179,19.026 19.379,20.090 19.114,21.433 C19.004,21.986 18.819,22.501 18.559,22.959 C18.298,23.419 17.957,23.847 17.538,24.227 ZM24.862,25.230 L25.852,20.355 C25.965,19.785 25.923,19.361 25.728,19.153 C25.532,18.946 25.115,18.806 24.478,18.806 L22.489,18.806 L21.206,25.230 L18.717,25.230 L20.956,14.074 L23.445,14.074 L22.850,17.116 L25.068,17.116 C26.464,17.116 27.426,17.392 27.955,17.871 C28.485,18.349 28.644,19.005 28.432,20.077 L27.390,25.230 L24.862,25.230 ZM38.698,21.451 C38.589,22.005 38.404,22.510 38.143,22.968 C37.883,23.427 37.543,23.847 37.122,24.227 C36.621,24.688 36.065,24.878 35.452,25.074 C34.840,25.271 34.059,25.230 33.111,25.230 L30.962,25.230 L30.367,28.611 L27.858,28.611 L30.096,17.116 L34.922,17.116 C36.374,17.116 37.432,17.527 38.098,18.276 C38.763,19.026 38.963,20.108 38.698,21.451 ZM33.971,18.806 L32.252,18.806 L31.315,23.540 L32.842,23.540 C33.853,23.540 34.607,23.442 35.102,23.066 C35.597,22.692 35.931,22.110 36.104,21.234 C36.271,20.391 36.195,19.734 35.878,19.388 C35.560,19.042 34.924,18.806 33.971,18.806 L33.971,18.806 ZM14.386,18.806 L12.667,18.806 L11.730,23.540 L13.256,23.540 C14.268,23.540 15.021,23.442 15.517,23.066 C16.012,22.692 16.346,22.110 16.519,21.234 C16.686,20.391 16.610,19.734 16.292,19.388 C15.975,19.042 15.340,18.806 14.386,18.806 L14.386,18.806 Z" class="cls-1"></path>
                    </svg>