 <svg xmlns="http://www.w3.org/2000/svg" xmlns:xlink="http://www.w3.org/1999/xlink" preserveAspectRatio="xMidYMid" width="43" height="43" viewBox="0 0 45 45">
                    <path fill="#5c8eb0" d="M18.585,22.414 L26.282,22.414 C28.424,22.414 30.112,20.625 30.112,18.503 L30.112,11.265 C30.112,9.205 28.361,7.658 26.270,7.314 C24.946,7.097 23.579,6.998 22.261,7.004 C20.944,7.010 19.724,7.121 18.617,7.314 C15.356,7.882 14.802,9.072 14.802,11.265 L14.802,14.082 L22.457,14.082 L22.457,15.123 L11.839,15.123 C9.600,15.123 7.639,16.453 7.026,18.979 C6.318,21.875 6.287,23.645 7.026,26.668 C7.573,28.918 8.881,30.485 11.121,30.485 L13.746,30.485 L13.746,27.087 C13.746,24.578 15.971,22.413 18.585,22.413 L18.585,22.414 ZM18.100,12.231 C17.301,12.231 16.654,11.585 16.654,10.787 C16.654,9.985 17.301,9.334 18.100,9.334 C18.895,9.334 19.546,9.985 19.546,10.787 C19.545,11.585 18.895,12.231 18.100,12.231 ZM37.841,18.979 C37.287,16.780 36.230,15.123 33.987,15.123 L31.168,15.123 L31.168,18.503 C31.168,21.120 28.846,23.195 26.282,23.195 L18.585,23.195 C16.476,23.195 14.802,25.101 14.802,27.185 L14.802,34.423 C14.802,36.482 16.583,37.694 18.620,38.285 C21.059,38.992 23.369,39.121 26.288,38.285 C28.228,37.730 30.112,36.616 30.112,34.423 L30.112,31.526 L22.457,31.526 L22.457,30.485 L33.987,30.485 C36.227,30.485 37.062,28.981 37.841,26.668 C38.645,24.286 38.611,22.033 37.841,18.979 L37.841,18.979 ZM26.766,33.457 C27.565,33.457 28.213,34.103 28.213,34.901 C28.213,35.702 27.566,36.354 26.766,36.354 C25.971,36.354 25.320,35.703 25.320,34.901 C25.320,34.103 25.971,33.457 26.766,33.457 L26.766,33.457 Z" class="cls-1"></path>
                    </svg>